<svg width="48" height="40" viewBox="0 0 48 40" fill="none" xmlns="http://www.w3.org/2000/svg">
<path d="M44.9283 22.8369V37.3295C44.9283 38.1719 44.2516 38.8555 43.4179 38.8555H1.5104C0.676658 38.8555 0 38.1719 0 37.3295V22.8369H17.7442V26.2018H27.1841V22.8369H44.9283Z" fill="#F56692"/>
<path d="M44.9283 8.34389V22.8365H27.1841V19.4716H17.7442V22.8365H0V8.34389C0 7.50153 0.676658 6.81787 1.5104 6.81787H43.4179C44.2516 6.81787 44.9283 7.50153 44.9283 8.34389Z" fill="#F56692"/>
<path d="M27.1839 19.4722H17.7439V26.2019H27.1839V19.4722Z" fill="#F56692"/>
<path d="M44.6763 5.67374H34.3756V1.14451C34.3756 0.512437 33.8684 0 33.2428 0H14.2022C13.5766 0 13.0694 0.512437 13.0694 1.14451V5.67374H2.76868C1.3113 5.67374 0.125488 6.87181 0.125488 8.34427C0.125488 9.61773 0.125488 36.0583 0.125488 37.3295C0.125488 38.8019 1.3113 40 2.76868 40H44.6763C46.1337 40 47.3195 38.8019 47.3195 37.3295C47.3195 36.0594 47.3195 9.6188 47.3195 8.34427C47.3195 6.87181 46.1337 5.67374 44.6763 5.67374ZM15.335 2.28903H32.11V5.67358H15.335V2.28903ZM2.39108 8.34427C2.39108 8.13383 2.56055 7.96277 2.76868 7.96277H44.6763C44.8846 7.96277 45.0539 8.13383 45.0539 8.34427V21.6924H29.5752V19.472C29.5752 18.8398 29.0682 18.3275 28.4424 18.3275H19.0024C18.3768 18.3275 17.8696 18.8398 17.8696 19.472V21.6924H2.39108V8.34427ZM20.1352 22.8369V20.6165H27.3096V22.8369V25.0572H20.1352V22.8369ZM45.0539 37.3295C45.0539 37.5399 44.8846 37.711 44.6763 37.711H2.76868C2.56055 37.711 2.39108 37.5399 2.39108 37.3295V23.9814H17.8696V26.2017C17.8696 26.834 18.3768 27.3463 19.0024 27.3463H28.4424C29.0682 27.3463 29.5752 26.834 29.5752 26.2017V23.9814H45.0539V37.3295Z" fill="white"/>
</svg>
